<svg width="40" height="40" viewBox="0 0 40 40" fill="none" xmlns="http://www.w3.org/2000/svg">
<rect width="40" height="40" rx="20" fill="#4E6084"/>
<path d="M20.125 34.1667C18.6424 34.1667 17.1233 33.8993 15.5677 33.3646C14.0122 32.8299 12.6024 32.1007 11.3385 31.1771C10.0747 30.2535 9.03559 29.1719 8.22135 27.9323C7.40712 26.6927 7 25.3681 7 23.9583V19.5833L12.8333 23.9583L10.5729 26.2188C11.2778 27.4583 12.3958 28.5278 13.9271 29.4271C15.4583 30.3264 17.0382 30.8976 18.6667 31.1406V18.125H14.2917V15.2083H18.6667V13.4948C17.816 13.1788 17.1172 12.6502 16.5703 11.9089C16.0234 11.1675 15.75 10.3229 15.75 9.375C15.75 8.15972 16.1753 7.12674 17.026 6.27604C17.8767 5.42535 18.9097 5 20.125 5C21.3403 5 22.3733 5.42535 23.224 6.27604C24.0747 7.12674 24.5 8.15972 24.5 9.375C24.5 10.3229 24.2266 11.1675 23.6797 11.9089C23.1328 12.6502 22.434 13.1788 21.5833 13.4948V15.2083H25.9583V18.125H21.5833V31.1406C23.2118 30.8976 24.7917 30.3264 26.3229 29.4271C27.8542 28.5278 28.9722 27.4583 29.6771 26.2188L27.4167 23.9583L33.25 19.5833V23.9583C33.25 25.3681 32.8429 26.6927 32.0286 27.9323C31.2144 29.1719 30.1753 30.2535 28.9115 31.1771C27.6476 32.1007 26.2378 32.8299 24.6823 33.3646C23.1267 33.8993 21.6076 34.1667 20.125 34.1667ZM20.125 10.8333C20.5382 10.8333 20.8845 10.6936 21.1641 10.4141C21.4436 10.1345 21.5833 9.78819 21.5833 9.375C21.5833 8.96181 21.4436 8.61545 21.1641 8.33594C20.8845 8.05642 20.5382 7.91667 20.125 7.91667C19.7118 7.91667 19.3655 8.05642 19.0859 8.33594C18.8064 8.61545 18.6667 8.96181 18.6667 9.375C18.6667 9.78819 18.8064 10.1345 19.0859 10.4141C19.3655 10.6936 19.7118 10.8333 20.125 10.8333Z" fill="#F0F0F0"/>
</svg>
