<svg width="40" height="40" viewBox="0 0 40 40" fill="none" xmlns="http://www.w3.org/2000/svg">
<g opacity="0.9">
<rect width="40" height="40" rx="20" fill="#C7D6E5"/>
<path d="M20 32C19.34 32 18.775 31.765 18.305 31.295C17.835 30.825 17.6 30.26 17.6 29.6H22.4C22.4 30.26 22.165 30.825 21.695 31.295C21.225 31.765 20.66 32 20 32ZM15.2 28.4V26H24.8V28.4H15.2ZM15.5 24.8C14.12 23.98 13.025 22.88 12.215 21.5C11.405 20.12 11 18.62 11 17C11 14.5 11.875 12.375 13.625 10.625C15.375 8.875 17.5 8 20 8C22.5 8 24.625 8.875 26.375 10.625C28.125 12.375 29 14.5 29 17C29 18.62 28.595 20.12 27.785 21.5C26.975 22.88 25.88 23.98 24.5 24.8H15.5ZM16.22 22.4H23.78C24.68 21.76 25.375 20.97 25.865 20.03C26.355 19.09 26.6 18.08 26.6 17C26.6 15.16 25.96 13.6 24.68 12.32C23.4 11.04 21.84 10.4 20 10.4C18.16 10.4 16.6 11.04 15.32 12.32C14.04 13.6 13.4 15.16 13.4 17C13.4 18.08 13.645 19.09 14.135 20.03C14.625 20.97 15.32 21.76 16.22 22.4Z" fill="#121212"/>
</g>
</svg>
